<svg xmlns="http://www.w3.org/2000/svg" viewBox="0 0 960 720" role="img"><title>Guia fotografica</title><rect width="960" height="720" rx="36" fill="#eef3f5"/><rect x="216" y="224" width="528" height="404" rx="36" fill="#e8f0ee" stroke="#bbc7c9" stroke-width="3"/><path d="M371 584c4-73-11-151-26-224-7-34-12-68-5-102 7-36 31-67 67-77 42-11 93 8 112 49 19 42 4 94-2 138-8 61-5 122 8 182 8 38-16 73-55 76l-54 4c-26 2-46-18-45-46z" fill="#dea27e"/><rect x="560" y="284" width="44" height="270" rx="6" fill="#fff" stroke="#30485a" stroke-width="2"/><rect x="308" y="48" width="344" height="110" rx="28" fill="#30485a"/><text x="480" y="110" text-anchor="middle" fill="#eef4f4" font-family="sans-serif" font-size="14" font-weight="600">CAMARA ARRIBA - PIE SOBRE RUNA</text></svg>